# xmcd
#
# Track frame offsets: 
#        150
#        14775
#        30215
#        42742
#        56940
#        74848
#        94289
#        109798
#        123547
#        136803
#        152432
#        162291
#
# Disc length: 2365 seconds
#
# Revision: 0
# Processed by: cddbd v1.5.2PL0 Copyright (c) Steve Scherf et al.
# Submitted via: ExactAudioCopy v0.99pb4
#
DISCID=ac093b0c
DTITLE=Albert White - Soul Of The Blues
DYEAR=2007
DGENRE=Blues
TTITLE0=Hold On To Your Hiney
TTITLE1=A Rose For My Lady
TTITLE2=Bring It On Home To Me
TTITLE3=Soul Of A Man
TTITLE4=Stranded In St. Louis
TTITLE5=Don't Make Your Move Too Soon
TTITLE6=Get Down, Get Down
TTITLE7=I'll Take Care Of You
TTITLE8=Dr. Feelgood
TTITLE9=Let's Talk It Over
TTITLE10=Landlord Blues
TTITLE11=Someday Baby
EXTD=
EXTT0=
EXTT1=
EXTT2=
EXTT3=
EXTT4=
EXTT5=
EXTT6=
EXTT7=
EXTT8=
EXTT9=
EXTT10=
EXTT11=
PLAYORDER=
